<?xml version="1.0" standalone="no"?>
<!DOCTYPE svg PUBLIC "-//W3C//DTD SVG 20010904//EN"
 "http://www.w3.org/TR/2001/REC-SVG-20010904/DTD/svg10.dtd">
<svg version="1.0" xmlns="http://www.w3.org/2000/svg"
 width="260.000000pt" height="260.000000pt" viewBox="0 0 260.000000 260.000000"
 preserveAspectRatio="xMidYMid meet">
<metadata>
Created by potrace 1.11, written by Peter Selinger 2001-2013
</metadata>
<g transform="translate(0.000000,260.000000) scale(0.100000,-0.100000)"
fill="#000000" stroke="none">
<path d="M528 1825 c-2 -2 -23 -5 -48 -8 -150 -19 -304 -128 -387 -275 -136
-241 -75 -547 142 -718 48 -38 148 -90 190 -99 129 -28 223 -27 323 6 54 17
146 65 161 83 18 21 33 20 57 -3 25 -23 136 -76 189 -90 145 -38 326 -6 450
79 24 16 46 30 50 30 3 0 21 -11 38 -24 42 -31 128 -74 161 -80 14 -2 30 -8
36 -11 34 -21 251 -11 305 14 11 5 37 17 58 26 191 84 319 279 321 490 1 123
-18 214 -56 268 -11 15 -16 27 -12 27 8 0 -39 62 -85 113 -70 76 -206 148
-307 163 -137 21 -267 -5 -389 -77 -54 -31 -73 -38 -85 -30 -107 77 -219 115
-340 114 -132 0 -185 -14 -293 -77 -37 -22 -67 -43 -67 -48 0 -5 -12 2 -26 16
-42 38 -147 86 -224 102 -27 6 -158 13 -162 9z"/>
</g>
</svg>
